<?xml version="1.0" encoding="UTF-8" standalone="no"?>
<!DOCTYPE svg PUBLIC "-//W3C//DTD SVG 1.1//EN" "http://www.w3.org/Graphics/SVG/1.1/DTD/svg11.dtd">
<svg width="100%" height="100%" viewBox="0 0 1024 600" version="1.1" xmlns="http://www.w3.org/2000/svg" xmlns:xlink="http://www.w3.org/1999/xlink" xml:space="preserve" xmlns:serif="http://www.serif.com/" style="fill-rule:evenodd;clip-rule:evenodd;stroke-linejoin:round;stroke-miterlimit:2;">
    <g id="type">
        <g transform="matrix(1,0,0,1,82.404,152.263)">
            <g transform="matrix(105,0,0,105,7.10918,136.535)">
                <path d="M0.379,-0.082L0.37,-0.082C0.348,-0.083 0.31,-0.089 0.296,-0.107C0.287,-0.118 0.286,-0.138 0.286,-0.157L0.286,-0.521C0.286,-0.542 0.287,-0.566 0.3,-0.578C0.316,-0.593 0.351,-0.597 0.379,-0.598L0.379,-0.681L0.02,-0.681L0.02,-0.599L0.027,-0.598C0.048,-0.597 0.085,-0.591 0.098,-0.574C0.108,-0.561 0.109,-0.537 0.109,-0.517L0.109,-0.16C0.109,-0.139 0.108,-0.115 0.095,-0.102C0.08,-0.088 0.045,-0.083 0.02,-0.082L0.02,-0L0.379,-0L0.379,-0.082Z" style="fill:white;fill-rule:nonzero;"/>
            </g>
            <g transform="matrix(105,0,0,105,57.5092,136.535)">
                <path d="M0.261,-0.575L0.261,-0.164C0.261,-0.144 0.26,-0.119 0.25,-0.107C0.236,-0.088 0.201,-0.083 0.179,-0.082L0.167,-0.082L0.167,-0L0.532,-0L0.532,-0.082L0.52,-0.082C0.498,-0.083 0.463,-0.088 0.449,-0.107C0.439,-0.119 0.438,-0.144 0.438,-0.164L0.438,-0.575C0.438,-0.587 0.441,-0.59 0.457,-0.59C0.494,-0.59 0.534,-0.565 0.56,-0.541C0.588,-0.515 0.607,-0.484 0.63,-0.445L0.703,-0.474L0.623,-0.681L0.076,-0.681L-0.004,-0.474L0.069,-0.445C0.092,-0.484 0.111,-0.515 0.139,-0.541C0.165,-0.565 0.205,-0.59 0.242,-0.59C0.258,-0.59 0.261,-0.587 0.261,-0.575Z" style="fill:white;fill-rule:nonzero;"/>
            </g>
            <g transform="matrix(105,0,0,105,134.159,136.535)">
                <path d="M0.141,-0.44L0.147,-0.444C0.198,-0.486 0.242,-0.53 0.242,-0.602C0.242,-0.653 0.215,-0.698 0.159,-0.698C0.116,-0.698 0.082,-0.662 0.082,-0.62C0.082,-0.578 0.106,-0.552 0.147,-0.545C0.135,-0.522 0.117,-0.503 0.098,-0.486L0.141,-0.44Z" style="fill:white;fill-rule:nonzero;"/>
            </g>
            <g transform="matrix(105,0,0,105,166.709,136.535)">
                <path d="M0.458,-0.649C0.412,-0.68 0.351,-0.698 0.296,-0.698C0.167,-0.698 0.041,-0.617 0.041,-0.477C0.041,-0.42 0.063,-0.365 0.11,-0.331C0.151,-0.302 0.215,-0.287 0.264,-0.275L0.377,-0.247C0.418,-0.237 0.484,-0.227 0.484,-0.172C0.484,-0.106 0.411,-0.084 0.356,-0.084C0.236,-0.084 0.149,-0.168 0.097,-0.269L0.021,-0.244L0.104,0.008L0.164,0.008L0.178,-0.038C0.224,-0.001 0.299,0.017 0.357,0.017C0.502,0.017 0.639,-0.072 0.639,-0.229C0.639,-0.285 0.615,-0.343 0.567,-0.374C0.523,-0.402 0.462,-0.416 0.412,-0.43L0.345,-0.448L0.308,-0.456C0.273,-0.465 0.198,-0.476 0.198,-0.525C0.198,-0.58 0.263,-0.597 0.308,-0.597C0.352,-0.597 0.395,-0.581 0.431,-0.556C0.464,-0.534 0.492,-0.496 0.515,-0.464L0.524,-0.451L0.596,-0.478L0.53,-0.681L0.47,-0.681L0.458,-0.649Z" style="fill:white;fill-rule:nonzero;"/>
            </g>
            <g transform="matrix(105,0,0,105,278.009,136.535)">
                <path d="M0.358,-0.681L0.015,-0.681L0.015,-0.599C0.09,-0.59 0.097,-0.577 0.097,-0.52L0.097,-0.211C0.097,-0.143 0.106,-0.085 0.168,-0.038C0.223,0.004 0.298,0.017 0.366,0.017C0.439,0.017 0.526,0.002 0.582,-0.05C0.637,-0.102 0.639,-0.177 0.639,-0.248L0.639,-0.499C0.639,-0.572 0.64,-0.592 0.724,-0.599L0.724,-0.681L0.455,-0.681L0.455,-0.6C0.538,-0.59 0.538,-0.573 0.538,-0.499L0.538,-0.249C0.538,-0.207 0.537,-0.157 0.507,-0.125C0.48,-0.096 0.434,-0.084 0.396,-0.084C0.355,-0.084 0.318,-0.102 0.294,-0.138C0.276,-0.165 0.274,-0.2 0.274,-0.234L0.274,-0.499C0.275,-0.572 0.274,-0.593 0.358,-0.599L0.358,-0.681Z" style="fill:white;fill-rule:nonzero;"/>
            </g>
            <g transform="matrix(105,0,0,105,364.109,136.535)">
                <path d="M0.313,-0.681L0.02,-0.681L0.02,-0.599C0.047,-0.597 0.084,-0.592 0.098,-0.574C0.107,-0.561 0.108,-0.538 0.108,-0.518L0.108,-0.16C0.108,-0.139 0.107,-0.115 0.094,-0.103C0.079,-0.088 0.045,-0.083 0.02,-0.082L0.02,-0L0.287,-0L0.287,-0.082C0.26,-0.084 0.223,-0.089 0.209,-0.107C0.2,-0.119 0.199,-0.143 0.199,-0.162L0.199,-0.526L0.512,-0L0.636,-0L0.636,-0.501C0.636,-0.573 0.639,-0.594 0.724,-0.599L0.724,-0.681L0.456,-0.681L0.456,-0.599C0.541,-0.593 0.542,-0.571 0.542,-0.501L0.542,-0.288L0.313,-0.681Z" style="fill:white;fill-rule:nonzero;"/>
            </g>
            <g transform="matrix(105,0,0,105,447.059,136.535)">
                <path d="M0.642,-0.242C0.598,-0.159 0.52,-0.084 0.421,-0.084C0.359,-0.084 0.305,-0.116 0.273,-0.168C0.243,-0.214 0.228,-0.288 0.228,-0.342C0.228,-0.451 0.268,-0.605 0.405,-0.605C0.457,-0.605 0.506,-0.576 0.542,-0.54C0.576,-0.506 0.6,-0.463 0.624,-0.422L0.628,-0.417L0.705,-0.445L0.616,-0.681L0.556,-0.681L0.544,-0.658C0.493,-0.685 0.435,-0.698 0.378,-0.698C0.165,-0.698 0.035,-0.546 0.035,-0.339C0.035,-0.132 0.186,0.017 0.393,0.017C0.538,0.017 0.672,-0.061 0.724,-0.199L0.642,-0.242Z" style="fill:white;fill-rule:nonzero;"/>
            </g>
            <g transform="matrix(105,0,0,105,533.159,136.535)">
                <path d="M0.668,-0.238L0.599,-0.274C0.547,-0.177 0.457,-0.092 0.341,-0.092C0.285,-0.092 0.28,-0.105 0.28,-0.142L0.28,-0.526C0.28,-0.546 0.281,-0.567 0.293,-0.578C0.309,-0.593 0.344,-0.597 0.372,-0.599L0.372,-0.681L0.02,-0.681L0.02,-0.599C0.103,-0.59 0.103,-0.573 0.103,-0.501L0.103,-0.18C0.103,-0.108 0.102,-0.09 0.02,-0.082L0.02,-0L0.564,-0L0.668,-0.238Z" style="fill:white;fill-rule:nonzero;"/>
            </g>
            <g transform="matrix(105,0,0,105,608.759,136.535)">
                <path d="M0.485,-0.522L0.407,-0.522C0.407,-0.496 0.404,-0.455 0.39,-0.434C0.376,-0.415 0.351,-0.413 0.327,-0.413L0.277,-0.413L0.277,-0.511C0.277,-0.533 0.278,-0.559 0.287,-0.571C0.3,-0.588 0.357,-0.589 0.376,-0.589C0.488,-0.589 0.568,-0.53 0.628,-0.441L0.696,-0.474L0.597,-0.681L0.02,-0.681L0.02,-0.599L0.043,-0.595C0.096,-0.586 0.1,-0.566 0.1,-0.528L0.1,-0.18C0.1,-0.118 0.098,-0.096 0.037,-0.085L0.02,-0.082L0.02,-0L0.614,-0L0.724,-0.236L0.654,-0.27C0.576,-0.158 0.496,-0.092 0.355,-0.092C0.334,-0.092 0.29,-0.092 0.281,-0.117C0.277,-0.128 0.277,-0.165 0.277,-0.192L0.277,-0.321L0.305,-0.321C0.332,-0.321 0.365,-0.32 0.381,-0.296C0.397,-0.272 0.404,-0.24 0.407,-0.212L0.485,-0.212L0.485,-0.522Z" style="fill:white;fill-rule:nonzero;"/>
            </g>
            <g transform="matrix(105,0,0,105,692.759,136.535)">
                <path d="M0.452,-0.681L0.297,-0.681L0.103,-0.217C0.073,-0.146 0.054,-0.091 -0.034,-0.082L-0.034,-0L0.275,-0L0.275,-0.082L0.265,-0.083C0.241,-0.087 0.186,-0.087 0.186,-0.122C0.186,-0.135 0.193,-0.155 0.198,-0.168L0.226,-0.242L0.441,-0.242L0.468,-0.168C0.472,-0.154 0.482,-0.128 0.482,-0.114C0.482,-0.083 0.42,-0.085 0.399,-0.082L0.399,-0L0.763,-0L0.763,-0.082L0.752,-0.083C0.683,-0.096 0.681,-0.113 0.655,-0.177L0.452,-0.681ZM0.257,-0.329L0.334,-0.523L0.408,-0.329L0.257,-0.329Z" style="fill:white;fill-rule:nonzero;"/>
            </g>
            <g transform="matrix(105,0,0,105,779.909,136.535)">
                <path d="M0.539,-0.314C0.631,-0.331 0.705,-0.404 0.705,-0.501C0.705,-0.576 0.658,-0.633 0.589,-0.658C0.53,-0.679 0.459,-0.681 0.397,-0.681L0.02,-0.681L0.02,-0.599L0.032,-0.598C0.105,-0.594 0.106,-0.572 0.106,-0.509L0.106,-0.177C0.106,-0.106 0.105,-0.088 0.028,-0.083L0.02,-0.082L0.02,-0L0.38,-0L0.38,-0.082L0.366,-0.083C0.29,-0.088 0.283,-0.11 0.283,-0.178L0.283,-0.293L0.336,-0.293L0.551,-0L0.783,-0L0.783,-0.082C0.712,-0.088 0.697,-0.11 0.658,-0.161L0.539,-0.314ZM0.283,-0.389L0.283,-0.544C0.283,-0.555 0.284,-0.568 0.291,-0.574C0.305,-0.587 0.341,-0.589 0.368,-0.589C0.4,-0.589 0.439,-0.586 0.466,-0.566C0.488,-0.549 0.512,-0.519 0.512,-0.491C0.512,-0.451 0.482,-0.421 0.446,-0.404C0.416,-0.39 0.38,-0.389 0.346,-0.389L0.283,-0.389Z" style="fill:white;fill-rule:nonzero;"/>
            </g>
        </g>
        <g transform="matrix(1,0,0,1,83.8515,216.646)">
            <g transform="matrix(40,0,0,40,62.9392,136.535)">
                <path d="M0.379,-0.082L0.37,-0.082C0.348,-0.083 0.31,-0.089 0.296,-0.107C0.287,-0.118 0.286,-0.138 0.286,-0.157L0.286,-0.521C0.286,-0.542 0.287,-0.566 0.3,-0.578C0.316,-0.593 0.351,-0.597 0.379,-0.598L0.379,-0.681L0.02,-0.681L0.02,-0.599L0.027,-0.598C0.048,-0.597 0.085,-0.591 0.098,-0.574C0.108,-0.561 0.109,-0.537 0.109,-0.517L0.109,-0.16C0.109,-0.139 0.108,-0.115 0.095,-0.102C0.08,-0.088 0.045,-0.083 0.02,-0.082L0.02,-0L0.379,-0L0.379,-0.082Z" style="fill:white;fill-rule:nonzero;"/>
            </g>
            <g transform="matrix(40,0,0,40,84.6992,136.535)">
                <path d="M0.686,-0.476L0.592,-0.681L0.02,-0.681L0.02,-0.599C0.104,-0.593 0.106,-0.57 0.106,-0.501L0.106,-0.18C0.106,-0.109 0.104,-0.087 0.02,-0.082L0.02,-0L0.381,-0L0.381,-0.082L0.37,-0.082C0.348,-0.083 0.309,-0.088 0.295,-0.107C0.284,-0.122 0.283,-0.151 0.283,-0.171L0.283,-0.309C0.292,-0.309 0.3,-0.31 0.308,-0.31C0.394,-0.31 0.401,-0.282 0.412,-0.192L0.486,-0.192L0.486,-0.516L0.412,-0.516C0.408,-0.488 0.406,-0.457 0.391,-0.433C0.378,-0.409 0.349,-0.407 0.324,-0.407L0.283,-0.407L0.283,-0.51C0.283,-0.569 0.287,-0.589 0.364,-0.589C0.48,-0.589 0.55,-0.533 0.616,-0.442L0.686,-0.476Z" style="fill:white;fill-rule:nonzero;"/>
            </g>
            <g transform="matrix(40,0,0,40,137.019,136.535)">
                <path d="M0.642,-0.242C0.598,-0.159 0.52,-0.084 0.421,-0.084C0.359,-0.084 0.305,-0.116 0.273,-0.168C0.243,-0.214 0.228,-0.288 0.228,-0.342C0.228,-0.451 0.268,-0.605 0.405,-0.605C0.457,-0.605 0.506,-0.576 0.542,-0.54C0.576,-0.506 0.6,-0.463 0.624,-0.422L0.628,-0.417L0.705,-0.445L0.616,-0.681L0.556,-0.681L0.544,-0.658C0.493,-0.685 0.435,-0.698 0.378,-0.698C0.165,-0.698 0.035,-0.546 0.035,-0.339C0.035,-0.132 0.186,0.017 0.393,0.017C0.538,0.017 0.672,-0.061 0.724,-0.199L0.642,-0.242Z" style="fill:white;fill-rule:nonzero;"/>
            </g>
            <g transform="matrix(40,0,0,40,172.379,136.535)">
                <path d="M0.288,-0.412L0.288,-0.52C0.288,-0.541 0.29,-0.566 0.303,-0.578C0.318,-0.593 0.348,-0.598 0.375,-0.599L0.375,-0.681L0.02,-0.681L0.02,-0.599L0.028,-0.598C0.049,-0.597 0.087,-0.592 0.1,-0.574C0.11,-0.561 0.111,-0.537 0.111,-0.517L0.111,-0.16C0.111,-0.139 0.11,-0.115 0.097,-0.103C0.081,-0.088 0.046,-0.083 0.02,-0.082L0.02,-0L0.375,-0L0.375,-0.082L0.367,-0.083C0.345,-0.083 0.312,-0.089 0.299,-0.107C0.289,-0.12 0.288,-0.144 0.288,-0.164L0.288,-0.318L0.532,-0.318L0.532,-0.181C0.532,-0.11 0.529,-0.087 0.445,-0.082L0.445,-0L0.8,-0L0.8,-0.082L0.793,-0.083C0.772,-0.083 0.735,-0.089 0.722,-0.107C0.71,-0.124 0.709,-0.16 0.709,-0.18L0.709,-0.501C0.709,-0.573 0.714,-0.594 0.8,-0.599L0.8,-0.681L0.445,-0.681L0.445,-0.599C0.53,-0.593 0.532,-0.57 0.532,-0.5L0.532,-0.412L0.288,-0.412Z" style="fill:white;fill-rule:nonzero;"/>
            </g>
            <g transform="matrix(40,0,0,40,210.939,136.535)">
                <path d="M0.539,-0.314C0.631,-0.331 0.705,-0.404 0.705,-0.501C0.705,-0.576 0.658,-0.633 0.589,-0.658C0.53,-0.679 0.459,-0.681 0.397,-0.681L0.02,-0.681L0.02,-0.599L0.032,-0.598C0.105,-0.594 0.106,-0.572 0.106,-0.509L0.106,-0.177C0.106,-0.106 0.105,-0.088 0.028,-0.083L0.02,-0.082L0.02,-0L0.38,-0L0.38,-0.082L0.366,-0.083C0.29,-0.088 0.283,-0.11 0.283,-0.178L0.283,-0.293L0.336,-0.293L0.551,-0L0.783,-0L0.783,-0.082C0.712,-0.088 0.697,-0.11 0.658,-0.161L0.539,-0.314ZM0.283,-0.389L0.283,-0.544C0.283,-0.555 0.284,-0.568 0.291,-0.574C0.305,-0.587 0.341,-0.589 0.368,-0.589C0.4,-0.589 0.439,-0.586 0.466,-0.566C0.488,-0.549 0.512,-0.519 0.512,-0.491C0.512,-0.451 0.482,-0.421 0.446,-0.404C0.416,-0.39 0.38,-0.389 0.346,-0.389L0.283,-0.389Z" style="fill:white;fill-rule:nonzero;"/>
            </g>
            <g transform="matrix(40,0,0,40,247.899,136.535)">
                <path d="M0.379,-0.082L0.37,-0.082C0.348,-0.083 0.31,-0.089 0.296,-0.107C0.287,-0.118 0.286,-0.138 0.286,-0.157L0.286,-0.521C0.286,-0.542 0.287,-0.566 0.3,-0.578C0.316,-0.593 0.351,-0.597 0.379,-0.598L0.379,-0.681L0.02,-0.681L0.02,-0.599L0.027,-0.598C0.048,-0.597 0.085,-0.591 0.098,-0.574C0.108,-0.561 0.109,-0.537 0.109,-0.517L0.109,-0.16C0.109,-0.139 0.108,-0.115 0.095,-0.102C0.08,-0.088 0.045,-0.083 0.02,-0.082L0.02,-0L0.379,-0L0.379,-0.082Z" style="fill:white;fill-rule:nonzero;"/>
            </g>
            <g transform="matrix(40,0,0,40,269.659,136.535)">
                <path d="M0.458,-0.649C0.412,-0.68 0.351,-0.698 0.296,-0.698C0.167,-0.698 0.041,-0.617 0.041,-0.477C0.041,-0.42 0.063,-0.365 0.11,-0.331C0.151,-0.302 0.215,-0.287 0.264,-0.275L0.377,-0.247C0.418,-0.237 0.484,-0.227 0.484,-0.172C0.484,-0.106 0.411,-0.084 0.356,-0.084C0.236,-0.084 0.149,-0.168 0.097,-0.269L0.021,-0.244L0.104,0.008L0.164,0.008L0.178,-0.038C0.224,-0.001 0.299,0.017 0.357,0.017C0.502,0.017 0.639,-0.072 0.639,-0.229C0.639,-0.285 0.615,-0.343 0.567,-0.374C0.523,-0.402 0.462,-0.416 0.412,-0.43L0.345,-0.448L0.308,-0.456C0.273,-0.465 0.198,-0.476 0.198,-0.525C0.198,-0.58 0.263,-0.597 0.308,-0.597C0.352,-0.597 0.395,-0.581 0.431,-0.556C0.464,-0.534 0.492,-0.496 0.515,-0.464L0.524,-0.451L0.596,-0.478L0.53,-0.681L0.47,-0.681L0.458,-0.649Z" style="fill:white;fill-rule:nonzero;"/>
            </g>
            <g transform="matrix(40,0,0,40,321.179,136.535)">
                <path d="M0.642,-0.242C0.598,-0.159 0.52,-0.084 0.421,-0.084C0.359,-0.084 0.305,-0.116 0.273,-0.168C0.243,-0.214 0.228,-0.288 0.228,-0.342C0.228,-0.451 0.268,-0.605 0.405,-0.605C0.457,-0.605 0.506,-0.576 0.542,-0.54C0.576,-0.506 0.6,-0.463 0.624,-0.422L0.628,-0.417L0.705,-0.445L0.616,-0.681L0.556,-0.681L0.544,-0.658C0.493,-0.685 0.435,-0.698 0.378,-0.698C0.165,-0.698 0.035,-0.546 0.035,-0.339C0.035,-0.132 0.186,0.017 0.393,0.017C0.538,0.017 0.672,-0.061 0.724,-0.199L0.642,-0.242Z" style="fill:white;fill-rule:nonzero;"/>
            </g>
            <g transform="matrix(40,0,0,40,356.539,136.535)">
                <path d="M0.288,-0.412L0.288,-0.52C0.288,-0.541 0.29,-0.566 0.303,-0.578C0.318,-0.593 0.348,-0.598 0.375,-0.599L0.375,-0.681L0.02,-0.681L0.02,-0.599L0.028,-0.598C0.049,-0.597 0.087,-0.592 0.1,-0.574C0.11,-0.561 0.111,-0.537 0.111,-0.517L0.111,-0.16C0.111,-0.139 0.11,-0.115 0.097,-0.103C0.081,-0.088 0.046,-0.083 0.02,-0.082L0.02,-0L0.375,-0L0.375,-0.082L0.367,-0.083C0.345,-0.083 0.312,-0.089 0.299,-0.107C0.289,-0.12 0.288,-0.144 0.288,-0.164L0.288,-0.318L0.532,-0.318L0.532,-0.181C0.532,-0.11 0.529,-0.087 0.445,-0.082L0.445,-0L0.8,-0L0.8,-0.082L0.793,-0.083C0.772,-0.083 0.735,-0.089 0.722,-0.107C0.71,-0.124 0.709,-0.16 0.709,-0.18L0.709,-0.501C0.709,-0.573 0.714,-0.594 0.8,-0.599L0.8,-0.681L0.445,-0.681L0.445,-0.599C0.53,-0.593 0.532,-0.57 0.532,-0.5L0.532,-0.412L0.288,-0.412Z" style="fill:white;fill-rule:nonzero;"/>
            </g>
            <g transform="matrix(40,0,0,40,395.099,136.535)">
                <path d="M0.539,-0.314C0.631,-0.331 0.705,-0.404 0.705,-0.501C0.705,-0.576 0.658,-0.633 0.589,-0.658C0.53,-0.679 0.459,-0.681 0.397,-0.681L0.02,-0.681L0.02,-0.599L0.032,-0.598C0.105,-0.594 0.106,-0.572 0.106,-0.509L0.106,-0.177C0.106,-0.106 0.105,-0.088 0.028,-0.083L0.02,-0.082L0.02,-0L0.38,-0L0.38,-0.082L0.366,-0.083C0.29,-0.088 0.283,-0.11 0.283,-0.178L0.283,-0.293L0.336,-0.293L0.551,-0L0.783,-0L0.783,-0.082C0.712,-0.088 0.697,-0.11 0.658,-0.161L0.539,-0.314ZM0.283,-0.389L0.283,-0.544C0.283,-0.555 0.284,-0.568 0.291,-0.574C0.305,-0.587 0.341,-0.589 0.368,-0.589C0.4,-0.589 0.439,-0.586 0.466,-0.566C0.488,-0.549 0.512,-0.519 0.512,-0.491C0.512,-0.451 0.482,-0.421 0.446,-0.404C0.416,-0.39 0.38,-0.389 0.346,-0.389L0.283,-0.389Z" style="fill:white;fill-rule:nonzero;"/>
            </g>
            <g transform="matrix(40,0,0,40,432.059,136.535)">
                <path d="M0.379,-0.082L0.37,-0.082C0.348,-0.083 0.31,-0.089 0.296,-0.107C0.287,-0.118 0.286,-0.138 0.286,-0.157L0.286,-0.521C0.286,-0.542 0.287,-0.566 0.3,-0.578C0.316,-0.593 0.351,-0.597 0.379,-0.598L0.379,-0.681L0.02,-0.681L0.02,-0.599L0.027,-0.598C0.048,-0.597 0.085,-0.591 0.098,-0.574C0.108,-0.561 0.109,-0.537 0.109,-0.517L0.109,-0.16C0.109,-0.139 0.108,-0.115 0.095,-0.102C0.08,-0.088 0.045,-0.083 0.02,-0.082L0.02,-0L0.379,-0L0.379,-0.082Z" style="fill:white;fill-rule:nonzero;"/>
            </g>
            <g transform="matrix(40,0,0,40,453.819,136.535)">
                <path d="M0.458,-0.649C0.412,-0.68 0.351,-0.698 0.296,-0.698C0.167,-0.698 0.041,-0.617 0.041,-0.477C0.041,-0.42 0.063,-0.365 0.11,-0.331C0.151,-0.302 0.215,-0.287 0.264,-0.275L0.377,-0.247C0.418,-0.237 0.484,-0.227 0.484,-0.172C0.484,-0.106 0.411,-0.084 0.356,-0.084C0.236,-0.084 0.149,-0.168 0.097,-0.269L0.021,-0.244L0.104,0.008L0.164,0.008L0.178,-0.038C0.224,-0.001 0.299,0.017 0.357,0.017C0.502,0.017 0.639,-0.072 0.639,-0.229C0.639,-0.285 0.615,-0.343 0.567,-0.374C0.523,-0.402 0.462,-0.416 0.412,-0.43L0.345,-0.448L0.308,-0.456C0.273,-0.465 0.198,-0.476 0.198,-0.525C0.198,-0.58 0.263,-0.597 0.308,-0.597C0.352,-0.597 0.395,-0.581 0.431,-0.556C0.464,-0.534 0.492,-0.496 0.515,-0.464L0.524,-0.451L0.596,-0.478L0.53,-0.681L0.47,-0.681L0.458,-0.649Z" style="fill:white;fill-rule:nonzero;"/>
            </g>
            <g transform="matrix(40,0,0,40,485.979,136.535)">
                <path d="M0.261,-0.575L0.261,-0.164C0.261,-0.144 0.26,-0.119 0.25,-0.107C0.236,-0.088 0.201,-0.083 0.179,-0.082L0.167,-0.082L0.167,-0L0.532,-0L0.532,-0.082L0.52,-0.082C0.498,-0.083 0.463,-0.088 0.449,-0.107C0.439,-0.119 0.438,-0.144 0.438,-0.164L0.438,-0.575C0.438,-0.587 0.441,-0.59 0.457,-0.59C0.494,-0.59 0.534,-0.565 0.56,-0.541C0.588,-0.515 0.607,-0.484 0.63,-0.445L0.703,-0.474L0.623,-0.681L0.076,-0.681L-0.004,-0.474L0.069,-0.445C0.092,-0.484 0.111,-0.515 0.139,-0.541C0.165,-0.565 0.205,-0.59 0.242,-0.59C0.258,-0.59 0.261,-0.587 0.261,-0.575Z" style="fill:white;fill-rule:nonzero;"/>
            </g>
            <g transform="matrix(40,0,0,40,519.739,136.535)">
                <path d="M0.379,-0.082L0.37,-0.082C0.348,-0.083 0.31,-0.089 0.296,-0.107C0.287,-0.118 0.286,-0.138 0.286,-0.157L0.286,-0.521C0.286,-0.542 0.287,-0.566 0.3,-0.578C0.316,-0.593 0.351,-0.597 0.379,-0.598L0.379,-0.681L0.02,-0.681L0.02,-0.599L0.027,-0.598C0.048,-0.597 0.085,-0.591 0.098,-0.574C0.108,-0.561 0.109,-0.537 0.109,-0.517L0.109,-0.16C0.109,-0.139 0.108,-0.115 0.095,-0.102C0.08,-0.088 0.045,-0.083 0.02,-0.082L0.02,-0L0.379,-0L0.379,-0.082Z" style="fill:white;fill-rule:nonzero;"/>
            </g>
            <g transform="matrix(40,0,0,40,541.499,136.535)">
                <path d="M0.485,-0.522L0.407,-0.522C0.407,-0.496 0.404,-0.455 0.39,-0.434C0.376,-0.415 0.351,-0.413 0.327,-0.413L0.277,-0.413L0.277,-0.511C0.277,-0.533 0.278,-0.559 0.287,-0.571C0.3,-0.588 0.357,-0.589 0.376,-0.589C0.488,-0.589 0.568,-0.53 0.628,-0.441L0.696,-0.474L0.597,-0.681L0.02,-0.681L0.02,-0.599L0.043,-0.595C0.096,-0.586 0.1,-0.566 0.1,-0.528L0.1,-0.18C0.1,-0.118 0.098,-0.096 0.037,-0.085L0.02,-0.082L0.02,-0L0.614,-0L0.724,-0.236L0.654,-0.27C0.576,-0.158 0.496,-0.092 0.355,-0.092C0.334,-0.092 0.29,-0.092 0.281,-0.117C0.277,-0.128 0.277,-0.165 0.277,-0.192L0.277,-0.321L0.305,-0.321C0.332,-0.321 0.365,-0.32 0.381,-0.296C0.397,-0.272 0.404,-0.24 0.407,-0.212L0.485,-0.212L0.485,-0.522Z" style="fill:white;fill-rule:nonzero;"/>
            </g>
            <g transform="matrix(40,0,0,40,595.419,136.535)">
                <path d="M0.379,-0.082L0.37,-0.082C0.348,-0.083 0.31,-0.089 0.296,-0.107C0.287,-0.118 0.286,-0.138 0.286,-0.157L0.286,-0.521C0.286,-0.542 0.287,-0.566 0.3,-0.578C0.316,-0.593 0.351,-0.597 0.379,-0.598L0.379,-0.681L0.02,-0.681L0.02,-0.599L0.027,-0.598C0.048,-0.597 0.085,-0.591 0.098,-0.574C0.108,-0.561 0.109,-0.537 0.109,-0.517L0.109,-0.16C0.109,-0.139 0.108,-0.115 0.095,-0.102C0.08,-0.088 0.045,-0.083 0.02,-0.082L0.02,-0L0.379,-0L0.379,-0.082Z" style="fill:white;fill-rule:nonzero;"/>
            </g>
            <g transform="matrix(40,0,0,40,617.179,136.535)">
                <path d="M0.458,-0.649C0.412,-0.68 0.351,-0.698 0.296,-0.698C0.167,-0.698 0.041,-0.617 0.041,-0.477C0.041,-0.42 0.063,-0.365 0.11,-0.331C0.151,-0.302 0.215,-0.287 0.264,-0.275L0.377,-0.247C0.418,-0.237 0.484,-0.227 0.484,-0.172C0.484,-0.106 0.411,-0.084 0.356,-0.084C0.236,-0.084 0.149,-0.168 0.097,-0.269L0.021,-0.244L0.104,0.008L0.164,0.008L0.178,-0.038C0.224,-0.001 0.299,0.017 0.357,0.017C0.502,0.017 0.639,-0.072 0.639,-0.229C0.639,-0.285 0.615,-0.343 0.567,-0.374C0.523,-0.402 0.462,-0.416 0.412,-0.43L0.345,-0.448L0.308,-0.456C0.273,-0.465 0.198,-0.476 0.198,-0.525C0.198,-0.58 0.263,-0.597 0.308,-0.597C0.352,-0.597 0.395,-0.581 0.431,-0.556C0.464,-0.534 0.492,-0.496 0.515,-0.464L0.524,-0.451L0.596,-0.478L0.53,-0.681L0.47,-0.681L0.458,-0.649Z" style="fill:white;fill-rule:nonzero;"/>
            </g>
            <g transform="matrix(40,0,0,40,668.699,136.535)">
                <path d="M0.02,-0L0.353,-0C0.457,-0 0.556,-0.003 0.639,-0.076C0.716,-0.144 0.748,-0.238 0.748,-0.34C0.748,-0.414 0.728,-0.488 0.685,-0.548C0.648,-0.601 0.587,-0.648 0.524,-0.666C0.471,-0.681 0.385,-0.681 0.329,-0.681L0.02,-0.681L0.02,-0.599C0.104,-0.592 0.105,-0.571 0.105,-0.501L0.105,-0.18C0.105,-0.109 0.103,-0.088 0.02,-0.082L0.02,-0ZM0.282,-0.525C0.282,-0.585 0.296,-0.589 0.357,-0.589C0.415,-0.589 0.468,-0.573 0.508,-0.52C0.545,-0.471 0.555,-0.404 0.555,-0.343C0.555,-0.205 0.495,-0.092 0.35,-0.092C0.333,-0.092 0.307,-0.093 0.293,-0.102C0.283,-0.108 0.282,-0.122 0.282,-0.135L0.282,-0.525Z" style="fill:white;fill-rule:nonzero;"/>
            </g>
            <g transform="matrix(40,0,0,40,705.659,136.535)">
                <path d="M0.485,-0.522L0.407,-0.522C0.407,-0.496 0.404,-0.455 0.39,-0.434C0.376,-0.415 0.351,-0.413 0.327,-0.413L0.277,-0.413L0.277,-0.511C0.277,-0.533 0.278,-0.559 0.287,-0.571C0.3,-0.588 0.357,-0.589 0.376,-0.589C0.488,-0.589 0.568,-0.53 0.628,-0.441L0.696,-0.474L0.597,-0.681L0.02,-0.681L0.02,-0.599L0.043,-0.595C0.096,-0.586 0.1,-0.566 0.1,-0.528L0.1,-0.18C0.1,-0.118 0.098,-0.096 0.037,-0.085L0.02,-0.082L0.02,-0L0.614,-0L0.724,-0.236L0.654,-0.27C0.576,-0.158 0.496,-0.092 0.355,-0.092C0.334,-0.092 0.29,-0.092 0.281,-0.117C0.277,-0.128 0.277,-0.165 0.277,-0.192L0.277,-0.321L0.305,-0.321C0.332,-0.321 0.365,-0.32 0.381,-0.296C0.397,-0.272 0.404,-0.24 0.407,-0.212L0.485,-0.212L0.485,-0.522Z" style="fill:white;fill-rule:nonzero;"/>
            </g>
            <g transform="matrix(40,0,0,40,740.219,136.535)">
                <path d="M0.452,-0.681L0.297,-0.681L0.103,-0.217C0.073,-0.146 0.054,-0.091 -0.034,-0.082L-0.034,-0L0.275,-0L0.275,-0.082L0.265,-0.083C0.241,-0.087 0.186,-0.087 0.186,-0.122C0.186,-0.135 0.193,-0.155 0.198,-0.168L0.226,-0.242L0.441,-0.242L0.468,-0.168C0.472,-0.154 0.482,-0.128 0.482,-0.114C0.482,-0.083 0.42,-0.085 0.399,-0.082L0.399,-0L0.763,-0L0.763,-0.082L0.752,-0.083C0.683,-0.096 0.681,-0.113 0.655,-0.177L0.452,-0.681ZM0.257,-0.329L0.334,-0.523L0.408,-0.329L0.257,-0.329Z" style="fill:white;fill-rule:nonzero;"/>
            </g>
            <g transform="matrix(40,0,0,40,774.779,136.535)">
                <path d="M0.02,-0L0.353,-0C0.457,-0 0.556,-0.003 0.639,-0.076C0.716,-0.144 0.748,-0.238 0.748,-0.34C0.748,-0.414 0.728,-0.488 0.685,-0.548C0.648,-0.601 0.587,-0.648 0.524,-0.666C0.471,-0.681 0.385,-0.681 0.329,-0.681L0.02,-0.681L0.02,-0.599C0.104,-0.592 0.105,-0.571 0.105,-0.501L0.105,-0.18C0.105,-0.109 0.103,-0.088 0.02,-0.082L0.02,-0ZM0.282,-0.525C0.282,-0.585 0.296,-0.589 0.357,-0.589C0.415,-0.589 0.468,-0.573 0.508,-0.52C0.545,-0.471 0.555,-0.404 0.555,-0.343C0.555,-0.205 0.495,-0.092 0.35,-0.092C0.333,-0.092 0.307,-0.093 0.293,-0.102C0.283,-0.108 0.282,-0.122 0.282,-0.135L0.282,-0.525Z" style="fill:white;fill-rule:nonzero;"/>
            </g>
        </g>
    </g>
</svg>
